/* XPM */
static char *_44b2ab56e4e4fb3879272d25c4af48coJ2amteYnR0aXiSM[] = {
/* columns rows colors chars-per-pixel */
"16 16 106 2 ",
"   c #D8AF2D",
".  c #DAB12D",
"X  c #E6B428",
"o  c #E0BB2F",
"O  c #E6BC2F",
"+  c #E9B92C",
"@  c #FABF30",
"#  c #E8C82F",
"$  c #EACE2F",
"%  c #F6CA2C",
"&  c #F5CC2D",
"*  c #E3C433",
"=  c #E8C333",
"-  c #E9CF32",
";  c #EBC937",
":  c #EACE36",
">  c #EECD35",
",  c #E8CC39",
"<  c #EACC39",
"1  c #EACE3A",
"2  c #FBC331",
"3  c #FDC733",
"4  c #FFCB35",
"5  c #FFCC35",
"6  c #EAD03A",
"7  c #EDD23A",
"8  c #E8D43E",
"9  c #EED73C",
"0  c #EED83D",
"q  c #F6D030",
"w  c #FCD637",
"e  c #F0D038",
"r  c #F2D13A",
"t  c #F4D639",
"y  c #F6DC3D",
"u  c #FAD838",
"i  c #FADC3A",
"p  c #F7E935",
"a  c #FCE03E",
"s  c #FAF13B",
"d  c #FCF13B",
"f  c #E7C845",
"g  c #EAD243",
"h  c #EAD441",
"j  c #E8D045",
"k  c #EAD544",
"l  c #EAD644",
"z  c #EAD349",
"x  c #EAD54B",
"c  c #EAD34F",
"v  c #EDD949",
"b  c #EFDC4E",
"n  c #F8DE40",
"m  c #EAD352",
"M  c #F0DD52",
"N  c #FCE040",
"B  c #F9E447",
"V  c #FEE84A",
"C  c #FEEF4C",
"Z  c #FCED4F",
"A  c #FBF342",
"S  c #FDF740",
"D  c #FFF144",
"F  c #FDF546",
"G  c #FFF747",
"H  c #FBFB41",
"J  c #FDFB43",
"K  c #FEF649",
"L  c #FFF34E",
"P  c #FFF74F",
"I  c #FFF949",
"U  c #FCF94A",
"Y  c #F9FD48",
"T  c #FFF94C",
"R  c #FDFB4C",
"E  c #FFEE5B",
"W  c #FEEA5F",
"Q  c #FFF351",
"!  c #FFF354",
"~  c #FEF757",
"^  c #FFF950",
"/  c #FDFD52",
"(  c #FAFA54",
")  c #FEFA55",
"_  c #FCFC54",
"`  c #FFF35A",
"'  c #FEF55A",
"]  c #FCF859",
"[  c #FDFA5A",
"{  c #FBFC5A",
"}  c #FDFE59",
"|  c #FDFD5B",
" . c #FDF85F",
".. c #FDEA64",
"X. c #FBFB61",
"o. c #FFFB63",
"O. c #FDFD62",
"+. c #FDF865",
"@. c #FDFF65",
"#. c #FDFA69",
"$. c #FEFC6B",
"%. c #FFFD6B",
"&. c #FFFD6E",
"*. c #FFFE73",
"=. c #FFFE74",
"-. c #FFFD78",
/* pixels */
"    . o * , 1 1 ; ; 8 k v b M 1 ",
"f ..W E ' [ ~ ' ~ ` ' ~ ~ Q L , ",
"j &.&.&.&./ _ } [ ] _ ^ K A s $ ",
"k &.&.&.&./ _ _ _ ' P F I I d - ",
"j } &./ R R R _ ^ [ R K F F F 6 ",
"g } _ D D I I R ^ P ( R I I U 6 ",
"h { ( I I K I I R R I Y Y I H : ",
"8 O.[ I D D D D D K H H J d s : ",
"g +.@.I &.D D D D D D D D d p = ",
"z #.&.I +.}  .} [ } } } _ _ R 1 ",
"c *.=.=.&.&.%.@.@.@.} } } ' C = ",
"m *.-.=.*.*.*.&.&.#.o.' C B n O ",
"m =.=.%.=.*.&.%.#.+.` V y t t + ",
"z @.X.X.O.@.@.O.o.' B n i u w + ",
"k _ _ ! Q ^ ! ~ Q Q N u q % % X ",
"0 9 9 9 6 6 r > > r 5 4 4 3 2 @ "
};
