/* XPM */
static char *_9391ad5337d49c0f7a075836ac4a473nko2YyN7iwY4OQva[] = {
/* columns rows colors chars-per-pixel */
"16 16 32 1 ",
"  c #372A17",
". c #382B18",
"X c #392C19",
"o c #3C2F1C",
"O c #3F321F",
"+ c #403320",
"@ c #413421",
"# c #463926",
"$ c #4C3D26",
"% c #59472C",
"& c #5E4B2F",
"* c #624D2C",
"= c #634E2D",
"- c #644F2E",
"; c #65502F",
": c #665130",
"> c #685332",
", c #695433",
"< c #6A5534",
"1 c #6C5736",
"2 c #6D5837",
"3 c #6F5A39",
"4 c #705B3A",
"5 c #7C623E",
"6 c #8F6F40",
"7 c #927243",
"8 c #957546",
"9 c #977748",
"0 c #9A7A4B",
"q c #9B7B4C",
"w c #9C7C4D",
"e c #9F7F50",
/* pixels */
"#,1qo18@:>>525,w",
"O;3.O0@:0O:0$5$8",
"X&-@:0O:8O:5$5$0",
"2#=+55O,0X:0Ow@5",
"<@1:551:2@<0o0X5",
"1&1:0,:<<O,6O5+>",
">5$19=;o7o5% 5O2",
"<qO<qO0@0X5$;5O3",
">0+48@,@,@8X2<+5",
",w#:18@<<X8@18@5",
"#5+<:9X;O&eO<q@8",
"O5+:30@0.&wO18Ow",
"X0X:<q.,O;0X<=O0",
"@2&1,5$32=:O<8q.",
"X>9+<5$O7>0X;5O:",
"&:5O-<:+,1:.:,-5"
};
